<svg width="15" height="16" viewBox="0 0 15 16" fill="none" xmlns="http://www.w3.org/2000/svg">
<path d="M11.8811 8.501C11.8878 7.88865 12.0498 7.28802 12.3518 6.7553C12.6538 6.22258 13.0861 5.7752 13.6081 5.455C13.2758 4.98304 12.8387 4.5945 12.331 4.31984C11.8233 4.04519 11.259 3.8919 10.6821 3.872C9.43609 3.746 8.25109 4.606 7.61809 4.606C6.98509 4.606 6.01109 3.891 4.97809 3.906C4.29984 3.92487 3.63814 4.11969 3.05787 4.47136C2.4776 4.82303 1.99868 5.31947 1.66809 5.912C0.257094 8.36 1.30709 11.988 2.68209 13.973C3.35409 14.945 4.15509 16.037 5.20709 15.998C6.22009 15.958 6.60709 15.342 7.82809 15.342C9.04909 15.342 9.39709 15.998 10.4691 15.977C11.5591 15.957 12.2501 14.986 12.9171 14.011C13.3939 13.3099 13.767 12.5437 14.0251 11.736C13.3904 11.4652 12.8488 11.0144 12.4673 10.4393C12.0857 9.86428 11.8809 9.19011 11.8781 8.5L11.8811 8.501ZM9.86409 2.555C10.4678 1.84653 10.7669 0.928099 10.6961 0C9.78558 0.0890263 8.94349 0.522591 8.34209 1.212C8.04165 1.54664 7.81158 1.93829 7.66555 2.36365C7.51953 2.789 7.46054 3.23938 7.49209 3.688C7.94794 3.69407 8.39905 3.59502 8.81042 3.39853C9.22178 3.20203 9.58234 2.91339 9.86409 2.555Z" fill="#4754A0"/>
</svg>
