<svg width="14" height="18" viewBox="0 0 14 18" fill="none" xmlns="http://www.w3.org/2000/svg">
<path d="M10.25 9.00001H3.75V11.167H10.25V9.00001ZM13.263 3.88801L9.949 0.570012C9.87332 0.494543 9.78347 0.434758 9.68463 0.394088C9.58579 0.353418 9.47989 0.332663 9.373 0.333012H9.167V4.66601H13.5V4.46001C13.4999 4.24548 13.4146 4.03977 13.263 3.88801ZM8.083 4.93301V0.333012H1.313C1.20616 0.332748 1.10033 0.353597 1.00157 0.394361C0.902812 0.435124 0.813083 0.494999 0.737536 0.570546C0.66199 0.646093 0.602115 0.735822 0.561351 0.834579C0.520587 0.933335 0.499739 1.03917 0.500002 1.14601V16.854C0.499739 16.9608 0.520587 17.0667 0.561351 17.1654C0.602115 17.2642 0.66199 17.3539 0.737536 17.4295C0.813083 17.505 0.902812 17.5649 1.00157 17.6057C1.10033 17.6464 1.20616 17.6673 1.313 17.667H12.688C12.7948 17.6671 12.9005 17.6462 12.9991 17.6054C13.0978 17.5646 13.1874 17.5047 13.2628 17.4291C13.3383 17.3536 13.398 17.2639 13.4387 17.1652C13.4795 17.0665 13.5003 16.9608 13.5 16.854V5.75001H8.9C8.79264 5.75028 8.68628 5.72932 8.58704 5.68836C8.4878 5.64739 8.39763 5.58722 8.32171 5.51131C8.24579 5.43539 8.18562 5.34522 8.14466 5.24598C8.10369 5.14673 8.08274 5.04038 8.083 4.93301ZM2.667 2.77101C2.667 2.69914 2.69555 2.63021 2.74638 2.57939C2.7972 2.52856 2.86613 2.50001 2.938 2.50001H5.646C5.71788 2.50001 5.78681 2.52856 5.83763 2.57939C5.88845 2.63021 5.917 2.69914 5.917 2.77101V3.31301C5.917 3.38489 5.88845 3.45382 5.83763 3.50464C5.78681 3.55546 5.71788 3.58401 5.646 3.58401H2.938C2.86613 3.58401 2.7972 3.55546 2.74638 3.50464C2.69555 3.45382 2.667 3.38489 2.667 3.31301V2.77101ZM2.667 4.93801C2.667 4.86614 2.69555 4.79721 2.74638 4.74639C2.7972 4.69556 2.86613 4.66701 2.938 4.66701H5.646C5.71788 4.66701 5.78681 4.69556 5.83763 4.74639C5.88845 4.79721 5.917 4.86614 5.917 4.93801V5.48001C5.917 5.55189 5.88845 5.62082 5.83763 5.67164C5.78681 5.72246 5.71788 5.75101 5.646 5.75101H2.938C2.86613 5.75101 2.7972 5.72246 2.74638 5.67164C2.69555 5.62082 2.667 5.55189 2.667 5.48001V4.93801ZM11.333 15.233C11.333 15.3049 11.3045 15.3738 11.2536 15.4246C11.2028 15.4755 11.1339 15.504 11.062 15.504H8.354C8.28213 15.504 8.2132 15.4755 8.16238 15.4246C8.11155 15.3738 8.083 15.3049 8.083 15.233V14.691C8.083 14.6191 8.11155 14.5502 8.16238 14.4994C8.2132 14.4486 8.28213 14.42 8.354 14.42H11.062C11.0976 14.42 11.1328 14.427 11.1657 14.4406C11.1986 14.4543 11.2285 14.4742 11.2536 14.4994C11.2788 14.5246 11.2988 14.5544 11.3124 14.5873C11.326 14.6202 11.333 14.6554 11.333 14.691V15.233ZM11.333 8.46201V11.712C11.333 11.8558 11.2759 11.9936 11.1743 12.0953C11.0726 12.1969 10.9348 12.254 10.791 12.254H3.208C3.06425 12.254 2.9264 12.1969 2.82475 12.0953C2.72311 11.9936 2.666 11.8558 2.666 11.712V8.45801C2.666 8.31427 2.72311 8.1764 2.82475 8.07476C2.9264 7.97312 3.06425 7.91601 3.208 7.91601H10.791C10.9348 7.91601 11.0726 7.97312 11.1743 8.07476C11.2759 8.1764 11.333 8.31427 11.333 8.45801V8.46201Z" fill="#4754A0"/>
</svg>
