<svg width="18" height="20" viewBox="0 0 18 20" fill="none" xmlns="http://www.w3.org/2000/svg">
<path d="M9 10C9.98891 10 10.9556 9.70676 11.7779 9.15735C12.6001 8.60794 13.241 7.82705 13.6194 6.91342C13.9978 5.99979 14.0969 4.99446 13.9039 4.02455C13.711 3.05465 13.2348 2.16373 12.5355 1.46447C11.8363 0.765206 10.9454 0.289002 9.97545 0.0960759C9.00555 -0.0968503 8.00021 0.00216642 7.08658 0.380605C6.17295 0.759043 5.39206 1.39991 4.84265 2.22215C4.29324 3.0444 4 4.0111 4 5C4 6.32609 4.52678 7.59785 5.46447 8.53554C6.40215 9.47322 7.67392 10 9 10ZM12.5 11.25H11.85C10.9565 11.6625 9.98411 11.8761 9 11.8761C8.01589 11.8761 7.04351 11.6625 6.15 11.25H5.5C4.10769 11.2503 2.77249 11.8035 1.78798 12.788C0.803474 13.7725 0.250265 15.1077 0.25 16.5V18.125C0.25 18.6223 0.447544 19.0992 0.799175 19.4508C1.15081 19.8025 1.62772 20 2.125 20H15.875C16.3723 20 16.8492 19.8025 17.2008 19.4508C17.5525 19.0992 17.75 18.6223 17.75 18.125V16.5C17.7497 15.1077 17.1965 13.7725 16.212 12.788C15.2275 11.8035 13.8923 11.2503 12.5 11.25Z" fill="white"/>
</svg>
