<svg width="20" height="20" viewBox="0 0 20 20" fill="none" xmlns="http://www.w3.org/2000/svg">
<path d="M7.5 8.125C7.5 7.79348 7.3683 7.47554 7.13388 7.24112C6.89946 7.0067 6.58152 6.875 6.25 6.875H5.625C4.96196 6.875 4.32607 7.13839 3.85723 7.60723C3.38839 8.07607 3.125 8.71196 3.125 9.375V11.25C3.125 11.913 3.38839 12.5489 3.85723 13.0178C4.32607 13.4866 4.96196 13.75 5.625 13.75H6.25C6.58152 13.75 6.89946 13.6183 7.13388 13.3839C7.3683 13.1495 7.5 12.8315 7.5 12.5V8.125ZM14.375 13.75C15.038 13.75 15.6739 13.4866 16.1428 13.0178C16.6116 12.5489 16.875 11.913 16.875 11.25V9.375C16.875 8.71196 16.6116 8.07607 16.1428 7.60723C15.6739 7.13839 15.038 6.875 14.375 6.875H13.75C13.4185 6.875 13.1005 7.0067 12.8661 7.24112C12.6317 7.47554 12.5 7.79348 12.5 8.125V12.5C12.5 12.8315 12.6317 13.1495 12.8661 13.3839C13.1005 13.6183 13.4185 13.75 13.75 13.75H14.375ZM10 0C7.36308 0.0487256 4.84775 1.11794 2.98284 2.98284C1.11794 4.84775 0.0487256 7.36308 0 10L0 10.625C0 10.7908 0.065848 10.9497 0.183058 11.0669C0.300269 11.1842 0.45924 11.25 0.625 11.25H1.25C1.41576 11.25 1.57473 11.1842 1.69194 11.0669C1.80915 10.9497 1.875 10.7908 1.875 10.625V10C1.875 7.84512 2.73102 5.77849 4.25476 4.25476C5.77849 2.73102 7.84512 1.875 10 1.875C12.1549 1.875 14.2215 2.73102 15.7452 4.25476C17.269 5.77849 18.125 7.84512 18.125 10C18.125 10.095 18.125 16.473 18.125 16.473C18.125 16.9111 17.951 17.3313 17.6411 17.6411C17.3313 17.951 16.9111 18.125 16.473 18.125H12.5C12.5 17.6277 12.3025 17.1508 11.9508 16.7992C11.5992 16.4475 11.1223 16.25 10.625 16.25H9.375C8.87772 16.25 8.40081 16.4475 8.04917 16.7992C7.69754 17.1508 7.5 17.6277 7.5 18.125C7.5 18.6223 7.69754 19.0992 8.04917 19.4508C8.40081 19.8025 8.87772 20 9.375 20H16.475C17.4101 19.9995 18.3067 19.6276 18.9677 18.9663C19.6287 18.3049 20 17.4081 20 16.473V10C19.9513 7.36308 18.8821 4.84775 17.0172 2.98284C15.1523 1.11794 12.6369 0.0487256 10 0Z" fill="white"/>
</svg>
