<svg width="63" height="63" viewBox="0 0 63 63" fill="none" xmlns="http://www.w3.org/2000/svg">
<g filter="url(#filter0_d_391_407)">
<circle cx="31.5" cy="27.5" r="27.5" fill="white"/>
</g>
<path d="M39.3565 21.3324C35.4772 21.535 32.1038 22.7111 29.365 25.368C26.5979 28.0522 25.3348 31.3415 25.6801 35.419C24.1638 35.2312 22.7827 35.0245 21.3938 34.9076C20.9141 34.8672 20.3448 34.9246 19.9385 35.1538C18.5898 35.9149 17.2968 36.7741 15.7644 37.732C16.0456 36.4603 16.2276 35.3465 16.5498 34.2754C16.7868 33.4881 16.677 33.0499 15.9517 32.5371C11.2949 29.2493 9.33193 24.3288 10.8009 19.2631C12.16 14.5768 15.4977 11.7347 20.0328 10.2532C26.2228 8.23127 33.1792 10.2937 36.9432 15.2082C38.3026 16.9835 39.1362 18.9759 39.3565 21.3324ZM21.5025 19.7539C21.5382 18.8274 20.7354 17.9927 19.7817 17.9648C18.8054 17.9361 18.0023 18.6822 17.9738 19.6443C17.945 20.6194 18.6907 21.4008 19.6742 21.4257C20.6492 21.4505 21.4664 20.7034 21.5025 19.7539ZM30.8177 17.9642C29.8605 17.9818 29.0518 18.797 29.0687 19.7272C29.0862 20.6914 29.8796 21.4457 30.8638 21.4339C31.8506 21.422 32.599 20.6597 32.5897 19.6752C32.5814 18.7087 31.7916 17.9464 30.8177 17.9642Z" fill="#A25DB6"/>
<path d="M48.072 45.5172C46.8437 44.9703 45.7168 44.1497 44.5172 44.0243C43.3221 43.8995 42.0658 44.5889 40.8155 44.7168C37.007 45.1065 33.595 44.045 30.7816 41.4432C25.4308 36.4941 26.1954 28.9056 32.386 24.8499C37.888 21.2453 45.9571 22.447 49.8362 27.4484C53.2214 31.8127 52.8235 37.6062 48.6909 41.2726C47.495 42.3337 47.0647 43.2069 47.832 44.6057C47.9736 44.864 47.9898 45.1911 48.072 45.5172ZM34.0893 31.979C34.8713 31.9798 35.5153 31.3678 35.5449 30.5954C35.5761 29.7777 34.9184 29.0918 34.0995 29.0884C33.2889 29.0848 32.6097 29.7802 32.6379 30.5858C32.6644 31.3555 33.3129 31.9781 34.0893 31.979ZM43.1032 29.0916C42.3445 29.0864 41.6998 29.7075 41.6688 30.4742C41.6359 31.294 42.2731 31.9672 43.0845 31.9693C43.8692 31.9718 44.4892 31.3784 44.5178 30.5975C44.5482 29.7758 43.9107 29.0972 43.1032 29.0916Z" fill="#A25DB6"/>
<defs>
<filter id="filter0_d_391_407" x="0" y="0" width="63" height="63" filterUnits="userSpaceOnUse" color-interpolation-filters="sRGB">
<feFlood flood-opacity="0" result="BackgroundImageFix"/>
<feColorMatrix in="SourceAlpha" type="matrix" values="0 0 0 0 0 0 0 0 0 0 0 0 0 0 0 0 0 0 127 0" result="hardAlpha"/>
<feOffset dy="4"/>
<feGaussianBlur stdDeviation="2"/>
<feComposite in2="hardAlpha" operator="out"/>
<feColorMatrix type="matrix" values="0 0 0 0 0 0 0 0 0 0 0 0 0 0 0 0 0 0 0.25 0"/>
<feBlend mode="normal" in2="BackgroundImageFix" result="effect1_dropShadow_391_407"/>
<feBlend mode="normal" in="SourceGraphic" in2="effect1_dropShadow_391_407" result="shape"/>
</filter>
</defs>
</svg>
