<svg width="30" height="28" viewBox="0 0 30 28" fill="none" xmlns="http://www.w3.org/2000/svg">
<path d="M14.5919 23.289L14.9996 23.8647L15.4078 23.2893L21.5995 14.561C22.8302 13.0191 23.5005 11.1046 23.5 9.13147C23.5137 6.86197 22.6277 4.67945 21.0358 3.06172C19.4436 1.44361 17.2749 0.522457 15.0049 0.500024L15.0049 0.499871L14.9925 0.500056C13.3556 0.524487 11.7593 1.01347 10.3896 1.91004C9.01986 2.80662 7.93303 4.0739 7.25568 5.56428C6.57834 7.05466 6.33835 8.70681 6.56368 10.3283C6.788 11.9426 7.46429 13.4603 8.51425 14.7064L14.5919 23.289ZM9.49997 9.12772L9.49995 9.12502C9.48526 7.64932 10.0568 6.2281 11.0891 5.17345C12.1201 4.12016 13.5264 3.51847 15 3.50004C16.4736 3.51847 17.8799 4.12016 18.9108 5.17345C19.9431 6.22811 20.5147 7.64932 20.5 9.12502L20.5 9.12748C20.4934 10.4223 20.0493 11.6769 19.2398 12.6874L19.2307 12.6987L19.2223 12.7105L15.0012 18.6547L10.8985 12.8417L10.8849 12.8225L10.8696 12.8046C9.99155 11.7801 9.50612 10.477 9.49997 9.12772Z" fill="#FBF639" stroke="#FBF639"/>
<path d="M15 10.5C16.3807 10.5 17.5 9.38071 17.5 8C17.5 6.61929 16.3807 5.5 15 5.5C13.6193 5.5 12.5 6.61929 12.5 8C12.5 9.38071 13.6193 10.5 15 10.5Z" fill="#FBF639" stroke="#FBF639"/>
<path d="M25 10.5H24.5V11V12.7778V13.2778H25H26.5V24.7222H3.5V13.2778H5H5.5V12.7778V11V10.5H5H3C2.35473 10.5 1.72574 10.7273 1.2536 11.147C0.77955 11.5684 0.5 12.1534 0.5 12.7778V25.2222C0.5 25.8466 0.77955 26.4316 1.2536 26.853C1.72574 27.2727 2.35473 27.5 3 27.5H27C27.6453 27.5 28.2743 27.2727 28.7464 26.853C29.2204 26.4316 29.5 25.8466 29.5 25.2222V12.7778C29.5 12.1534 29.2204 11.5684 28.7464 11.147C28.2743 10.7273 27.6453 10.5 27 10.5H25Z" fill="#FBF639" stroke="#FBF639"/>
</svg>
