<svg width="31" height="26" viewBox="0 0 31 26" fill="none" xmlns="http://www.w3.org/2000/svg">
<mask id="path-1-inside-1_1098_1223" fill="white">
<path d="M30.3774 13.1196C30.3774 15.7045 28.2789 17.808 25.7002 17.808H18.2727C19.8692 19.5943 19.799 22.5354 18.0934 24.2482C17.2159 25.1264 16.0265 25.6196 14.7865 25.6196C13.5466 25.6196 12.3572 25.1264 11.4797 24.2482L0.377441 13.1196L11.4797 1.99103C12.3572 1.11286 13.5466 0.61963 14.7865 0.61963C16.0265 0.61963 17.2159 1.11286 18.0934 1.99103C19.8006 3.70071 19.8707 6.64657 18.2727 8.43127H25.7002C28.2789 8.43127 30.3774 10.5348 30.3774 13.1196ZM10.7547 14.6824L25.7002 14.6824C26.1016 14.6644 26.4806 14.4919 26.7584 14.2008C27.0361 13.9097 27.1911 13.5224 27.1911 13.1196C27.1911 12.7168 27.0361 12.3296 26.7584 12.0385C26.4806 11.7474 26.1016 11.5748 25.7002 11.5568L10.7547 11.5568L15.8888 6.41059C16.1726 6.11309 16.331 5.71732 16.331 5.3057C16.331 4.89407 16.1726 4.49831 15.8888 4.20081C15.7442 4.05555 15.5723 3.94032 15.3832 3.86169C15.1941 3.78307 14.9913 3.7426 14.7865 3.7426C14.5818 3.7426 14.379 3.78307 14.1899 3.86169C14.0008 3.94032 13.8289 4.05555 13.6843 4.20081L4.78655 13.1196L13.6843 22.0385C13.8289 22.1837 14.0008 22.2989 14.1899 22.3776C14.379 22.4562 14.5818 22.4967 14.7865 22.4967C14.9913 22.4967 15.1941 22.4562 15.3832 22.3776C15.5723 22.2989 15.7442 22.1837 15.8888 22.0385C16.1726 21.7409 16.331 21.3452 16.331 20.9336C16.331 20.5219 16.1726 20.1262 15.8888 19.8287L10.7547 14.6824Z"/>
</mask>
<path d="M30.3774 13.1196C30.3774 15.7045 28.2789 17.808 25.7002 17.808H18.2727C19.8692 19.5943 19.799 22.5354 18.0934 24.2482C17.2159 25.1264 16.0265 25.6196 14.7865 25.6196C13.5466 25.6196 12.3572 25.1264 11.4797 24.2482L0.377441 13.1196L11.4797 1.99103C12.3572 1.11286 13.5466 0.61963 14.7865 0.61963C16.0265 0.61963 17.2159 1.11286 18.0934 1.99103C19.8006 3.70071 19.8707 6.64657 18.2727 8.43127H25.7002C28.2789 8.43127 30.3774 10.5348 30.3774 13.1196ZM10.7547 14.6824L25.7002 14.6824C26.1016 14.6644 26.4806 14.4919 26.7584 14.2008C27.0361 13.9097 27.1911 13.5224 27.1911 13.1196C27.1911 12.7168 27.0361 12.3296 26.7584 12.0385C26.4806 11.7474 26.1016 11.5748 25.7002 11.5568L10.7547 11.5568L15.8888 6.41059C16.1726 6.11309 16.331 5.71732 16.331 5.3057C16.331 4.89407 16.1726 4.49831 15.8888 4.20081C15.7442 4.05555 15.5723 3.94032 15.3832 3.86169C15.1941 3.78307 14.9913 3.7426 14.7865 3.7426C14.5818 3.7426 14.379 3.78307 14.1899 3.86169C14.0008 3.94032 13.8289 4.05555 13.6843 4.20081L4.78655 13.1196L13.6843 22.0385C13.8289 22.1837 14.0008 22.2989 14.1899 22.3776C14.379 22.4562 14.5818 22.4967 14.7865 22.4967C14.9913 22.4967 15.1941 22.4562 15.3832 22.3776C15.5723 22.2989 15.7442 22.1837 15.8888 22.0385C16.1726 21.7409 16.331 21.3452 16.331 20.9336C16.331 20.5219 16.1726 20.1262 15.8888 19.8287L10.7547 14.6824Z" fill="#FBF639"/>
<path d="M18.2727 17.808V7.80799H-4.07703L10.8167 24.4719L18.2727 17.808ZM18.0934 24.2482L25.167 31.3167L25.1732 31.3106L25.1793 31.3045L18.0934 24.2482ZM14.7865 25.6196L14.7865 35.6196L14.7865 25.6196ZM11.4797 24.2482L4.40028 31.3109L4.40605 31.3167L11.4797 24.2482ZM0.377441 13.1196L-6.702 6.05694L-13.748 13.1196L-6.702 20.1823L0.377441 13.1196ZM11.4797 1.99103L4.40605 -5.07745L4.40028 -5.07166L11.4797 1.99103ZM18.0934 1.99103L25.1696 -5.0749L25.167 -5.07744L18.0934 1.99103ZM18.2727 8.43127L10.8228 1.76048L-4.10464 18.4313H18.2727V8.43127ZM10.7547 14.6824V4.68242H-13.347L3.6753 21.7451L10.7547 14.6824ZM25.7002 14.6824V24.6824H25.9243L26.1481 24.6724L25.7002 14.6824ZM25.7002 11.5568L26.1481 1.56688L25.9243 1.55684H25.7002V11.5568ZM10.7547 11.5568L3.6753 4.49415L-13.347 21.5568L10.7547 21.5568V11.5568ZM15.8888 6.41059L22.9683 13.4733L23.0473 13.3941L23.1245 13.3131L15.8888 6.41059ZM15.8888 4.20081L23.1245 -2.70168L23.0502 -2.77958L22.9743 -2.85586L15.8888 4.20081ZM13.6843 4.20081L20.7637 11.2635L20.7697 11.2575L13.6843 4.20081ZM4.78655 13.1196L-2.29289 6.05694L-9.33887 13.1196L-2.29289 20.1823L4.78655 13.1196ZM13.6843 22.0385L20.7697 14.9818L20.7637 14.9758L13.6843 22.0385ZM14.7865 22.4967L14.7865 12.4967L14.7865 22.4967ZM15.8888 22.0385L22.9743 29.0951L23.0502 29.0188L23.1245 28.9409L15.8888 22.0385ZM15.8888 19.8287L23.1245 12.9262L23.0473 12.8452L22.9683 12.766L15.8888 19.8287ZM20.3774 13.1196C20.3774 10.204 22.7337 7.80799 25.7002 7.80799V27.808C33.8241 27.808 40.3774 21.205 40.3774 13.1196L20.3774 13.1196ZM25.7002 7.80799H18.2727V27.808H25.7002V7.80799ZM10.8167 24.4719C9.74036 23.2677 9.39558 21.8912 9.42486 20.7898C9.45427 19.6838 9.87486 18.3294 11.0075 17.192L25.1793 31.3045C30.6277 25.8331 30.8505 16.8746 25.7287 11.1441L10.8167 24.4719ZM11.0197 17.1798C12.0153 16.1835 13.3696 15.6196 14.7865 15.6196L14.7865 35.6196C18.6835 35.6196 22.4164 34.0693 25.167 31.3167L11.0197 17.1798ZM14.7865 15.6196C16.2035 15.6196 17.5578 16.1835 18.5534 17.1798L4.40605 31.3167C7.15664 34.0693 10.8896 35.6196 14.7865 35.6196L14.7865 15.6196ZM18.5592 17.1855L7.45688 6.05694L-6.702 20.1823L4.40028 31.3109L18.5592 17.1855ZM7.45688 20.1823L18.5592 9.05371L4.40028 -5.07166L-6.702 6.05694L7.45688 20.1823ZM18.5534 9.0595C17.5578 10.0558 16.2035 10.6196 14.7865 10.6196L14.7865 -9.38037C10.8896 -9.38037 7.15664 -7.83005 4.40605 -5.07744L18.5534 9.0595ZM14.7865 10.6196C13.3696 10.6196 12.0153 10.0558 11.0197 9.0595L25.167 -5.07744C22.4164 -7.83005 18.6835 -9.38037 14.7865 -9.38037L14.7865 10.6196ZM11.0172 9.05695C9.87571 7.91384 9.45539 6.55357 9.42603 5.44869C9.39679 4.3486 9.74096 2.96867 10.8228 1.76048L25.7225 15.1021C30.8525 9.37299 30.6341 0.397531 25.1696 -5.0749L11.0172 9.05695ZM18.2727 18.4313H25.7002V-1.56873H18.2727V18.4313ZM25.7002 18.4313C22.7337 18.4313 20.3774 16.0353 20.3774 13.1196L40.3774 13.1196C40.3774 5.03428 33.8241 -1.56873 25.7002 -1.56873V18.4313ZM10.7547 24.6824H25.7002V4.68242H10.7547V24.6824ZM26.1481 24.6724C29.129 24.5387 31.9387 23.2577 33.9939 21.1035L19.5229 7.29808C21.0226 5.72607 23.0742 4.79011 25.2522 4.69245L26.1481 24.6724ZM33.9939 21.1035C36.0483 18.95 37.1911 16.0899 37.1911 13.1196L17.1911 13.1196C17.1911 10.955 18.0239 8.86936 19.5229 7.29808L33.9939 21.1035ZM37.1911 13.1196C37.1911 10.1494 36.0483 7.28925 33.9939 5.13575L19.5229 18.9412C18.0239 17.3699 17.1911 15.2843 17.1911 13.1196L37.1911 13.1196ZM33.9939 5.13575C31.9387 2.98152 29.129 1.70054 26.1481 1.56688L25.2522 21.5468C23.0742 21.4491 21.0226 20.5132 19.5229 18.9412L33.9939 5.13575ZM25.7002 1.55684H10.7547L10.7547 21.5568H25.7002V1.55684ZM17.8342 18.6195L22.9683 13.4733L8.80938 -0.652101L3.6753 4.49415L17.8342 18.6195ZM23.1245 13.3131C25.1849 11.1532 26.331 8.28466 26.331 5.3057H6.33101C6.33101 3.14998 7.1603 1.07297 8.6531 -0.491902L23.1245 13.3131ZM26.331 5.3057C26.331 2.32673 25.1849 -0.541809 23.1245 -2.70168L8.6531 11.1033C7.1603 9.53843 6.33101 7.46141 6.33101 5.3057H26.331ZM22.9743 -2.85586C21.9019 -3.93264 20.6269 -4.78813 19.2217 -5.37226L11.5447 13.0956C10.5178 12.6688 9.58646 12.0437 8.80338 11.2575L22.9743 -2.85586ZM19.2217 -5.37226C17.8164 -5.95643 16.3092 -6.2574 14.7865 -6.2574L14.7865 13.7426C13.6734 13.7426 12.5717 13.5226 11.5447 13.0956L19.2217 -5.37226ZM14.7865 -6.2574C13.2639 -6.2574 11.7567 -5.95643 10.3514 -5.37226L18.0284 13.0956C17.0014 13.5226 15.8997 13.7426 14.7865 13.7426L14.7865 -6.2574ZM10.3514 -5.37226C8.9462 -4.78813 7.67123 -3.93264 6.59883 -2.85586L20.7697 11.2575C19.9866 12.0437 19.0553 12.6688 18.0284 13.0956L10.3514 -5.37226ZM6.60483 -2.86188L-2.29289 6.05694L11.866 20.1823L20.7637 11.2635L6.60483 -2.86188ZM-2.29289 20.1823L6.60483 29.1011L20.7637 14.9758L11.866 6.05694L-2.29289 20.1823ZM6.59883 29.0951C7.67121 30.1719 8.94616 31.0274 10.3514 31.6115L18.0284 13.1436C19.0553 13.5705 19.9867 14.1955 20.7697 14.9818L6.59883 29.0951ZM10.3514 31.6115C11.7566 32.1957 13.2638 32.4967 14.7865 32.4967L14.7865 12.4967C15.8997 12.4967 17.0014 12.7167 18.0284 13.1436L10.3514 31.6115ZM14.7865 32.4967C16.3093 32.4967 17.8165 32.1957 19.2217 31.6115L11.5447 13.1436C12.5717 12.7167 13.6734 12.4967 14.7865 12.4967L14.7865 32.4967ZM19.2217 31.6115C20.6269 31.0274 21.9019 30.1719 22.9743 29.0951L8.80338 14.9818C9.58643 14.1955 10.5178 13.5705 11.5447 13.1436L19.2217 31.6115ZM23.1245 28.9409C25.1849 26.7811 26.331 23.9125 26.331 20.9336H6.33101C6.33101 18.7778 7.16031 16.7008 8.6531 15.136L23.1245 28.9409ZM26.331 20.9336C26.331 17.9546 25.1849 15.0861 23.1245 12.9262L8.6531 26.7312C7.16031 25.1663 6.33101 23.0893 6.33101 20.9336H26.331ZM22.9683 12.766L17.8342 7.61973L3.6753 21.7451L8.80938 26.8914L22.9683 12.766Z" fill="#FBF639" mask="url(#path-1-inside-1_1098_1223)"/>
</svg>
