<svg width="25" height="23" viewBox="0 0 25 23" fill="none" xmlns="http://www.w3.org/2000/svg">
<path d="M24.5 12V22.24H16.743V18.727C16.743 18.1698 16.6332 17.6181 16.42 17.1034C16.2068 16.5887 15.8942 16.121 15.5002 15.7271C15.1062 15.3331 14.6384 15.0207 14.1237 14.8076C13.6089 14.5944 13.0572 14.4848 12.5 14.485C11.9428 14.4848 11.391 14.5945 10.8761 14.8077C10.3613 15.0209 9.89348 15.3334 9.49945 15.7274C9.10543 16.1214 8.7929 16.5892 8.57971 17.1041C8.36653 17.6189 8.25687 18.1707 8.257 18.728V22.24H0.5V12C0.49987 10.8748 0.946619 9.79573 1.742 8.99996L9.5 1.23996C10.296 0.444884 11.375 -0.00170898 12.5 -0.00170898C13.625 -0.00170898 14.704 0.444884 15.5 1.23996L23.257 8.99696C24.0524 9.79273 24.4991 10.8718 24.499 11.997L24.5 12Z" fill="#B6A5CA"/>
</svg>
