<svg width="19" height="18" viewBox="0 0 19 18" fill="none" xmlns="http://www.w3.org/2000/svg">
<path d="M16.811 1.93103H15.025V3.00403C15.0247 3.0989 14.9869 3.1898 14.9199 3.25688C14.8528 3.32396 14.7619 3.36177 14.667 3.36203H13.952C13.8571 3.36177 13.7662 3.32396 13.6991 3.25688C13.6321 3.1898 13.5943 3.0989 13.594 3.00403V1.93103H5.008V3.00403C5.00774 3.0989 4.96993 3.1898 4.90285 3.25688C4.83577 3.32396 4.74487 3.36177 4.65 3.36203H3.935C3.84013 3.36177 3.74923 3.32396 3.68215 3.25688C3.61507 3.1898 3.57726 3.0989 3.577 3.00403V1.93103H1.788C1.31428 1.93261 0.860413 2.1215 0.52544 2.45647C0.190468 2.79144 0.00158172 3.24531 0 3.71903V15.881C0.00158172 16.3548 0.190468 16.8086 0.52544 17.1436C0.860413 17.4786 1.31428 17.6674 1.788 17.669H16.811C17.2847 17.6674 17.7386 17.4786 18.0736 17.1436C18.4085 16.8086 18.5974 16.3548 18.599 15.881V3.71903C18.5974 3.24531 18.4085 2.79144 18.0736 2.45647C17.7386 2.1215 17.2847 1.93261 16.811 1.93103ZM17.169 15.344C17.1674 15.5806 17.0727 15.8071 16.9054 15.9744C16.7381 16.1418 16.5116 16.2365 16.275 16.238H2.325C2.08838 16.2365 1.8619 16.1418 1.69458 15.9744C1.52727 15.8071 1.43257 15.5806 1.431 15.344V7.29603C1.43126 7.20116 1.46907 7.11026 1.53615 7.04318C1.60323 6.9761 1.69413 6.93829 1.789 6.93803H16.811C16.9059 6.93829 16.9968 6.9761 17.0639 7.04318C17.1309 7.11026 17.1687 7.20116 17.169 7.29603V15.344Z" fill="#B6A5CA"/>
<path d="M5.0079 0.858C5.00764 0.763133 4.96984 0.672228 4.90276 0.605147C4.83568 0.538066 4.74477 0.500264 4.6499 0.5H3.9349C3.84004 0.500264 3.74913 0.538066 3.68205 0.605147C3.61497 0.672228 3.57717 0.763133 3.5769 0.858V1.931H5.0079V0.858Z" fill="#B6A5CA"/>
<path d="M15.023 0.858C15.0228 0.763133 14.985 0.672228 14.9179 0.605147C14.8508 0.538066 14.7599 0.500264 14.665 0.5H13.95C13.8552 0.500264 13.7643 0.538066 13.6972 0.605147C13.6301 0.672228 13.5923 0.763133 13.592 0.858V1.931H15.023V0.858Z" fill="#B6A5CA"/>
</svg>
