<svg width="20" height="20" viewBox="0 0 20 20" fill="none" xmlns="http://www.w3.org/2000/svg">
<path d="M18.3471 10C18.3475 9.47998 18.5055 8.97229 18.8002 8.54386C19.0949 8.11542 19.5126 7.78634 19.9981 7.6C19.7467 6.54993 19.3301 5.54644 18.7641 4.627C18.4343 4.7733 18.0778 4.84958 17.7171 4.851C17.2886 4.85171 16.8668 4.74515 16.49 4.54106C16.1133 4.33696 15.7937 4.04182 15.5602 3.68253C15.3268 3.32324 15.187 2.91123 15.1536 2.48408C15.1202 2.05692 15.1943 1.6282 15.3691 1.237C14.4522 0.670051 13.451 0.252504 12.4031 0C12.2166 0.485278 11.8875 0.902644 11.459 1.19704C11.0305 1.49143 10.5229 1.64902 10.0031 1.64902C9.4832 1.64902 8.97555 1.49143 8.54709 1.19704C8.11863 0.902644 7.78947 0.485278 7.60305 0C6.55195 0.251084 5.54742 0.667612 4.62705 1.234C4.80184 1.62528 4.87589 2.05409 4.84245 2.48133C4.80901 2.90857 4.66914 3.32063 4.43559 3.67995C4.20205 4.03926 3.88226 4.33439 3.5054 4.53842C3.12854 4.74244 2.7066 4.84887 2.27805 4.848C1.91705 4.8491 1.56001 4.77271 1.23105 4.624C0.670077 5.54642 0.255804 6.55039 0.00305176 7.6C0.488112 7.78632 0.905362 8.11519 1.19985 8.5433C1.49434 8.97141 1.65225 9.47867 1.65279 9.99828C1.65333 10.5179 1.49648 11.0255 1.20288 11.4542C0.909287 11.8829 0.492723 12.2127 0.00805187 12.4C0.259436 13.4501 0.675955 14.4536 1.24205 15.373C1.71644 15.162 2.24364 15.0998 2.75413 15.1945C3.26461 15.2892 3.7344 15.5364 4.10153 15.9035C4.46866 16.2707 4.71588 16.7404 4.81059 17.2509C4.9053 17.7614 4.84305 18.2886 4.63205 18.763C5.55113 19.3291 6.5538 19.7466 7.60305 20C7.78923 19.5159 8.11775 19.0995 8.54531 18.8059C8.97286 18.5122 9.47937 18.355 9.99805 18.355C10.5167 18.355 11.0232 18.5122 11.4508 18.8059C11.8784 19.0995 12.2069 19.5159 12.3931 20C13.4431 19.7486 14.4466 19.3321 15.3661 18.766C15.1568 18.2916 15.0958 17.7651 15.1912 17.2554C15.2865 16.7458 15.5337 16.2769 15.9003 15.9103C16.267 15.5437 16.7359 15.2965 17.2455 15.2011C17.7551 15.1058 18.2817 15.1667 18.7561 15.376C19.3226 14.4554 19.7401 13.451 19.9931 12.4C19.5094 12.2115 19.0938 11.8817 18.8002 11.4536C18.5067 11.0256 18.3487 10.5191 18.3471 10ZM10.0471 14.16C9.22309 14.16 8.41764 13.9157 7.73255 13.4579C7.04745 13.0001 6.51348 12.3495 6.19817 11.5883C5.88285 10.827 5.80035 9.98938 5.9611 9.18125C6.12185 8.37313 6.51862 7.63082 7.10124 7.04819C7.68387 6.46557 8.42618 6.06879 9.23431 5.90805C10.0424 5.7473 10.8801 5.8298 11.6413 6.14512C12.4025 6.46043 13.0532 6.9944 13.511 7.67949C13.9687 8.36459 14.2131 9.17004 14.2131 9.994C14.2131 10.541 14.1053 11.0826 13.8959 11.588C13.6865 12.0933 13.3796 12.5524 12.9927 12.9391C12.6059 13.3258 12.1466 13.6325 11.6412 13.8416C11.1357 14.0508 10.594 14.1583 10.0471 14.158V14.16Z" fill="white"/>
</svg>
