<svg width="19" height="30" viewBox="0 0 19 30" fill="none" xmlns="http://www.w3.org/2000/svg">
<path d="M0.750022 2.271V29.186C0.749554 29.2384 0.763769 29.29 0.791061 29.3348C0.818352 29.3795 0.857631 29.4158 0.904453 29.4394C0.951275 29.463 1.00377 29.4731 1.05601 29.4684C1.10824 29.4637 1.15813 29.4445 1.20002 29.413L9.41202 22.897C9.50961 22.8245 9.62795 22.7854 9.74952 22.7854C9.87109 22.7854 9.98943 22.8245 10.087 22.897L18.299 29.413C18.3409 29.4445 18.3908 29.4637 18.443 29.4684C18.4953 29.4731 18.5478 29.463 18.5946 29.4394C18.6414 29.4158 18.6807 29.3795 18.708 29.3348C18.7353 29.29 18.7495 29.2384 18.749 29.186V2.271C18.7503 1.97441 18.6932 1.68046 18.5807 1.40599C18.4683 1.13151 18.3029 0.881896 18.0939 0.671426C17.8849 0.460955 17.6365 0.29376 17.3628 0.179408C17.0892 0.0650555 16.7956 0.0057908 16.499 0.00500488H3.00002C2.70342 0.0057908 2.40989 0.0650555 2.13622 0.179408C1.86255 0.29376 1.61411 0.460955 1.40512 0.671426C1.19614 0.881896 1.03071 1.13151 0.9183 1.40599C0.80589 1.68046 0.748706 1.97441 0.750022 2.271Z" fill="#FF0000"/>
</svg>
