<svg width="28" height="23" viewBox="0 0 28 23" fill="none" xmlns="http://www.w3.org/2000/svg">
<path d="M4.33799 11.5C4.33799 11.8894 4.22252 12.2701 4.00616 12.5939C3.7898 12.9177 3.48229 13.1701 3.1225 13.3191C2.76271 13.4682 2.36681 13.5071 1.98486 13.4312C1.60291 13.3552 1.25207 13.1677 0.976702 12.8923C0.701332 12.6169 0.513803 12.2661 0.437828 11.8841C0.361854 11.5022 0.400847 11.1063 0.549876 10.7465C0.698905 10.3867 0.951276 10.0792 1.27508 9.86284C1.59888 9.64649 1.97956 9.53101 2.36899 9.53101C2.89121 9.53101 3.39203 9.73845 3.76129 10.1077C4.13055 10.477 4.33799 10.9778 4.33799 11.5Z" fill="#DBDBDB"/>
<path d="M4.33799 2.78099C4.33819 3.17046 4.22288 3.55125 4.00664 3.87518C3.79041 4.19911 3.48296 4.45164 3.12319 4.60082C2.76342 4.75 2.36749 4.78914 1.98548 4.71328C1.60346 4.63741 1.25252 4.44996 0.977055 4.17463C0.701586 3.8993 0.513957 3.54847 0.437902 3.16649C0.361846 2.78451 0.400781 2.38856 0.54978 2.02872C0.69878 1.66887 0.951151 1.36129 1.27497 1.14489C1.5988 0.928493 1.97952 0.812988 2.36899 0.812988C2.89103 0.812988 3.3917 1.0203 3.76093 1.38934C4.13017 1.75838 4.33773 2.25895 4.33799 2.78099Z" fill="#DBDBDB"/>
<path d="M4.33799 20.219C4.33799 20.6084 4.22252 20.9891 4.00616 21.3129C3.7898 21.6367 3.48229 21.8891 3.1225 22.0381C2.76271 22.1871 2.36681 22.2261 1.98486 22.1502C1.60291 22.0742 1.25207 21.8867 0.976702 21.6113C0.701332 21.3359 0.513803 20.9851 0.437828 20.6031C0.361854 20.2212 0.400847 19.8253 0.549876 19.4655C0.698905 19.1057 0.951276 18.7982 1.27508 18.5818C1.59888 18.3655 1.97956 18.25 2.36899 18.25C2.89121 18.25 3.39203 18.4574 3.76129 18.8267C4.13055 19.196 4.33799 19.6968 4.33799 20.219Z" fill="#DBDBDB"/>
<path d="M26.275 10.375H9.36499C9.06662 10.375 8.78047 10.4935 8.5695 10.7045C8.35852 10.9155 8.23999 11.2016 8.23999 11.5C8.23999 11.7984 8.35852 12.0845 8.5695 12.2955C8.78047 12.5065 9.06662 12.625 9.36499 12.625H26.275C26.5734 12.625 26.8595 12.5065 27.0705 12.2955C27.2815 12.0845 27.4 11.7984 27.4 11.5C27.4 11.2016 27.2815 10.9155 27.0705 10.7045C26.8595 10.4935 26.5734 10.375 26.275 10.375Z" fill="#DBDBDB"/>
<path d="M26.275 19.094H9.36499C9.06662 19.094 8.78047 19.2125 8.5695 19.4235C8.35852 19.6345 8.23999 19.9206 8.23999 20.219C8.23999 20.5174 8.35852 20.8035 8.5695 21.0145C8.78047 21.2255 9.06662 21.344 9.36499 21.344H26.275C26.5734 21.344 26.8595 21.2255 27.0705 21.0145C27.2815 20.8035 27.4 20.5174 27.4 20.219C27.4 19.9206 27.2815 19.6345 27.0705 19.4235C26.8595 19.2125 26.5734 19.094 26.275 19.094Z" fill="#DBDBDB"/>
<path d="M9.36499 3.90601H26.275C26.5734 3.90601 26.8595 3.78748 27.0705 3.5765C27.2815 3.36552 27.4 3.07937 27.4 2.78101C27.4 2.48264 27.2815 2.19649 27.0705 1.98551C26.8595 1.77453 26.5734 1.65601 26.275 1.65601H9.36499C9.06662 1.65601 8.78047 1.77453 8.5695 1.98551C8.35852 2.19649 8.23999 2.48264 8.23999 2.78101C8.23999 3.07937 8.35852 3.36552 8.5695 3.5765C8.78047 3.78748 9.06662 3.90601 9.36499 3.90601Z" fill="#DBDBDB"/>
</svg>
