<svg width="194" height="194" viewBox="0 0 194 194" fill="none" xmlns="http://www.w3.org/2000/svg">
<path d="M118.718 149.529C117.385 164.38 111.196 178.378 101.109 189.358C100.46 190.079 99.738 190.801 99.017 191.523C98.368 192.172 97.646 192.823 96.997 193.471C96.275 192.822 95.626 192.171 94.905 191.523C94.183 190.801 93.534 190.08 92.813 189.358C82.7237 178.38 76.5363 164.38 75.209 149.529C77.163 147.935 79.0184 146.225 80.765 144.406C81.0117 159.553 86.7561 174.093 96.928 185.318C107.14 174.118 112.891 159.562 113.091 144.406C113.151 141.196 112.958 137.986 112.514 134.806C111.051 124.163 106.877 114.075 100.392 105.511L100.176 103.996C103.489 106.706 107.067 109.075 110.855 111.067C115.965 120.599 118.734 131.208 118.936 142.021C119.043 144.526 118.97 147.035 118.718 149.529Z" fill="white"/>
<path d="M90.145 100.391C87.4357 103.745 85.0444 107.345 83.002 111.142C73.4759 116.256 62.8591 119.003 52.048 119.151H50.748C48.6521 119.163 46.557 119.066 44.471 118.862C29.6098 117.515 15.609 111.3 4.642 101.181C3.92 100.532 3.19899 99.81 2.47699 99.089C1.82799 98.44 1.17699 97.718 0.528992 97.069C1.17799 96.347 1.82899 95.698 2.47699 94.977C3.19899 94.255 3.92 93.606 4.642 92.885C15.5974 82.7604 29.6092 76.5673 44.471 75.281C46.0711 77.2533 47.8088 79.11 49.671 80.837C34.5306 81.0737 20.0017 86.8494 8.83099 97.072C20.0089 107.283 34.5333 113.057 49.671 113.307H50.825C53.6485 113.297 56.4684 113.104 59.267 112.73C69.9523 111.302 80.0763 107.097 88.629 100.535C89.1303 100.451 89.6369 100.403 90.145 100.391Z" fill="white"/>
<path d="M118.718 44.6151C116.764 46.2087 114.909 47.9195 113.162 49.738C112.915 34.5928 107.171 20.0537 97 8.82904C86.7991 20.0363 81.0501 34.5879 80.837 49.741C80.7772 52.9512 80.9701 56.1611 81.414 59.341C82.8777 69.9813 87.0519 80.0667 93.536 88.629L93.752 90.144C90.4226 87.4356 86.8474 85.0442 83.073 83.001C78.0189 73.4774 75.2753 62.8986 75.064 52.119C75.0162 49.5903 75.1127 47.0608 75.353 44.543C76.6983 29.675 82.8831 15.6586 92.959 4.64304C93.608 3.92104 94.33 3.20003 95.051 2.47803C95.7131 1.79186 96.4114 1.1416 97.143 0.530029C97.865 1.17903 98.514 1.83003 99.163 2.47803C99.885 3.20003 100.534 3.92104 101.255 4.64304C111.253 15.7233 117.381 29.751 118.718 44.6151Z" fill="white"/>
<path d="M193.471 97.0721C192.822 97.7941 192.171 98.4431 191.523 99.0921C190.801 99.8141 190.08 100.463 189.358 101.112C178.379 111.202 164.379 117.391 149.527 118.718C147.933 116.764 146.223 114.909 144.404 113.162C159.557 112.95 174.109 107.201 185.317 97.0001C174.117 86.7878 159.561 81.0371 144.405 80.8371H143.327C140.48 80.8497 137.636 81.0424 134.813 81.4141C124.148 82.8759 114.037 87.0496 105.446 93.5361L103.931 93.7521C106.617 90.4213 108.984 86.846 111.002 83.0731C120.533 77.9636 131.143 75.1937 141.956 74.9921C144.485 74.9443 147.014 75.0408 149.532 75.2811C164.382 76.6131 178.38 82.8007 189.361 92.8871C190.083 93.5361 190.804 94.2581 191.526 94.9791C192.172 95.7001 192.821 96.3501 193.471 97.0721Z" fill="white"/>
</svg>
