<svg width="26" height="20" viewBox="0 0 26 20" fill="none" xmlns="http://www.w3.org/2000/svg">
<path d="M23 1.63191e-05H3.00002C2.6721 -0.00078634 2.34727 0.0634256 2.04432 0.188939C1.74137 0.314453 1.46631 0.498778 1.23504 0.731256C1.00378 0.963734 0.820887 1.23975 0.696954 1.54335C0.573022 1.84695 0.510504 2.17211 0.513016 2.50002L0.500016 17.5C0.498827 17.8287 0.562679 18.1543 0.687895 18.4581C0.81311 18.762 0.997213 19.0381 1.2296 19.2704C1.46198 19.5028 1.73805 19.6869 2.0419 19.8121C2.34575 19.9374 2.67138 20.0012 3.00002 20H23C23.3287 20.0012 23.6543 19.9374 23.9581 19.8121C24.262 19.6869 24.5381 19.5028 24.7704 19.2704C25.0028 19.0381 25.1869 18.762 25.3121 18.4581C25.4374 18.1543 25.5012 17.8287 25.5 17.5V2.50002C25.5012 2.17138 25.4374 1.84575 25.3121 1.5419C25.1869 1.23805 25.0028 0.961981 24.7704 0.729597C24.5381 0.497214 24.262 0.31311 23.9581 0.187894C23.6543 0.062679 23.3287 -0.00117321 23 1.63191e-05ZM23 17.5H3.00002V10H23V17.5ZM23 5.00002H3.00002V2.50002H23V5.00002Z" fill="white"/>
</svg>
