<svg width="24" height="21" viewBox="0 0 24 21" fill="none" xmlns="http://www.w3.org/2000/svg">
<path d="M13.785 1.00009C16.4372 1.00009 18.9807 2.05366 20.8561 3.92903C22.7314 5.80439 23.785 8.34793 23.785 11.0001C23.785 13.6523 22.7314 16.1958 20.8561 18.0712C18.9807 19.9465 16.4372 21.0001 13.785 21.0001V18.8531C15.2774 18.8525 16.7388 18.4268 17.9981 17.6257C19.2574 16.8247 20.2625 15.6816 20.8956 14.3301C21.5288 12.9787 21.764 11.4748 21.5735 9.99454C21.3831 8.5143 20.7749 7.11893 19.8202 5.97177C18.8655 4.82462 17.6038 3.97313 16.1828 3.517C14.7617 3.06086 13.2402 3.01895 11.7962 3.39616C10.3522 3.77337 9.04551 4.55409 8.02912 5.64695C7.01272 6.73981 6.32865 8.09958 6.05699 9.56709H10.214L5.21399 15.2811L0.213989 9.56709H3.88699C4.23067 7.18674 5.42071 5.00999 7.23898 3.4358C9.05726 1.86162 11.382 0.995462 13.787 0.996094L13.785 1.00009ZM18.071 9.57109V12.4281H12.357V5.28609H15.214V9.57209L18.071 9.57109Z" fill="white"/>
</svg>
