<svg width="32" height="32" viewBox="0 0 32 32" fill="none" xmlns="http://www.w3.org/2000/svg">
<path d="M27.391 17.5C27.4564 17.0028 27.4818 16.5012 27.467 16C27.467 15.475 27.391 15.025 27.391 14.5L30.613 12.025C30.6881 11.9719 30.7518 11.9042 30.8004 11.8261C30.8489 11.7479 30.8814 11.6609 30.8957 11.57C30.9101 11.4791 30.9061 11.3863 30.884 11.297C30.8619 11.2077 30.8221 11.1237 30.767 11.05L27.698 5.875C27.6052 5.72373 27.4615 5.61046 27.2927 5.55549C27.124 5.50052 26.9412 5.50744 26.777 5.575L22.942 7.075C22.1443 6.45963 21.267 5.95505 20.334 5.575L19.797 1.6C19.7498 1.43131 19.6499 1.28213 19.5119 1.1742C19.374 1.06627 19.2051 1.00523 19.03 1H12.893C12.7179 1.00523 12.5491 1.06627 12.4111 1.1742C12.2731 1.28213 12.1733 1.43131 12.126 1.6L11.512 5.575C10.5875 5.9723 9.71232 6.47568 8.90402 7.075L5.06802 5.575C4.90476 5.50103 4.71974 5.49079 4.54931 5.5463C4.37889 5.60181 4.23539 5.71906 4.14702 5.875L1.07902 11.05C1.00768 11.21 0.98425 11.3873 1.01158 11.5603C1.03892 11.7334 1.11583 11.8948 1.23302 12.025L4.53302 14.5C4.53302 15.025 4.45702 15.475 4.45702 16C4.45702 16.525 4.53302 16.975 4.53302 17.5L1.31002 19.975C1.23491 20.0281 1.1712 20.0958 1.12265 20.1739C1.0741 20.2521 1.04169 20.3391 1.02734 20.43C1.01298 20.5209 1.01698 20.6137 1.03908 20.703C1.06118 20.7923 1.10094 20.8763 1.15602 20.95L4.22502 26.125C4.31787 26.2763 4.46154 26.3895 4.63031 26.4445C4.79907 26.4995 4.98189 26.4926 5.14602 26.425L8.98202 24.925C9.77969 25.5404 10.657 26.045 11.59 26.425L12.204 30.4C12.2384 30.5755 12.3349 30.7327 12.4757 30.8429C12.6166 30.9531 12.7924 31.0089 12.971 31H19.108C19.2831 30.9948 19.452 30.9337 19.5899 30.8258C19.7279 30.7179 19.8278 30.5687 19.875 30.4L20.489 26.425C21.4136 26.0278 22.2888 25.5244 23.097 24.925L26.933 26.425C27.0963 26.4987 27.2813 26.5089 27.4516 26.4534C27.622 26.3979 27.7655 26.2808 27.854 26.125L30.925 20.95C30.9971 20.7902 31.021 20.6127 30.9936 20.4395C30.9663 20.2663 30.8889 20.1048 30.771 19.975L27.391 17.5ZM15.961 21.25C15.263 21.2636 14.5692 21.1379 13.9203 20.8802C13.2714 20.6225 12.6804 20.2379 12.1819 19.7491C11.6834 19.2602 11.2875 18.6769 11.0171 18.0331C10.7468 17.3894 10.6075 16.6982 10.6075 16C10.6075 15.3018 10.7468 14.6106 11.0171 13.9669C11.2875 13.3231 11.6834 12.7398 12.1819 12.2509C12.6804 11.7621 13.2714 11.3775 13.9203 11.1198C14.5692 10.8621 15.263 10.7364 15.961 10.75C16.6591 10.7364 17.3529 10.8621 18.0017 11.1198C18.6506 11.3775 19.2416 11.7621 19.7401 12.2509C20.2386 12.7398 20.6346 13.3231 20.9049 13.9669C21.1753 14.6106 21.3145 15.3018 21.3145 16C21.3145 16.6982 21.1753 17.3894 20.9049 18.0331C20.6346 18.6769 20.2386 19.2602 19.7401 19.7491C19.2416 20.2379 18.6506 20.6225 18.0017 20.8802C17.3529 21.1379 16.6591 21.2636 15.961 21.25Z" stroke="#DCDCDC"/>
</svg>
