<svg width="18" height="17" viewBox="0 0 18 17" fill="none" xmlns="http://www.w3.org/2000/svg">
<path d="M2.988 1.56304C2.96131 1.41607 2.87866 1.28517 2.75743 1.19789C2.6362 1.11061 2.48585 1.07374 2.338 1.09504H0.017L0 1.20704C0.782835 1.3514 1.51528 1.69499 2.12674 2.20468C2.7382 2.71438 3.20805 3.37299 3.491 4.11704L2.988 1.56304ZM3.638 4.88904L3.491 4.11704C3.14176 3.26456 2.46848 2.58653 1.619 2.23004L2.788 6.64704H4.304L6.565 1.09504H5.04L3.64 4.88904H3.638ZM7.683 6.65604L8.583 1.09604H7.145L6.245 6.65604H7.683ZM11.606 1.00004C10.186 1.00004 9.19 1.75404 9.181 2.83604C9.172 3.63604 9.891 4.07504 10.437 4.34404C11 4.61204 11.182 4.79404 11.182 5.03604C11.182 5.40804 10.732 5.57304 10.325 5.57304C9.85758 5.59529 9.39231 5.49679 8.974 5.28704L8.783 5.18704L8.583 6.43404C9.09193 6.636 9.63551 6.73622 10.183 6.72904C11.69 6.73804 12.669 5.98404 12.683 4.82904C12.683 4.19604 12.293 3.72004 11.47 3.32104C10.97 3.07004 10.67 2.88804 10.67 2.62904C10.67 2.39504 10.929 2.15204 11.493 2.15204C11.8623 2.13737 12.2299 2.20857 12.567 2.36004L12.697 2.42904L12.897 1.22904C12.4851 1.07214 12.0478 0.992807 11.607 0.995041L11.606 1.00004ZM15.469 1.10004C15.3089 1.08099 15.147 1.11693 15.01 1.20197C14.873 1.287 14.769 1.41609 14.715 1.56804L12.584 6.66004H14.091C14.334 5.97604 14.391 5.82804 14.391 5.82804H16.229C16.229 5.82804 16.273 6.01904 16.402 6.66004H17.736L16.576 1.10004H15.468H15.469ZM14.802 4.68604C14.802 4.68604 14.923 4.36504 15.374 3.13604C15.365 3.14504 15.495 2.81504 15.565 2.60804L15.665 3.08504C15.933 4.41004 15.995 4.68504 15.995 4.68504H14.795L14.802 4.68604Z" fill="#4754A0"/>
<path d="M16.704 12.565C16.7096 11.7813 16.5074 11.0101 16.118 10.33C15.7092 9.67728 15.1577 9.12578 14.505 8.71699C13.8202 8.33904 13.0521 8.13764 12.27 8.13099C11.2996 8.12045 10.3552 8.44386 9.59497 9.04699C10.2866 9.65435 10.7732 10.4609 10.988 11.356H10.588C10.3764 10.5481 9.92988 9.82106 9.30497 9.26699C8.67987 9.8209 8.23333 10.548 8.02197 11.356H7.62197C7.83649 10.4608 8.32315 9.65418 9.01497 9.04699C8.25469 8.444 7.31028 8.12061 6.33997 8.13099C5.55784 8.13751 4.78968 8.33892 4.10497 8.71699C3.45208 9.12556 2.90054 9.6771 2.49197 10.33C2.10751 11.0123 1.90552 11.7823 1.90552 12.5655C1.90552 13.3487 2.10751 14.1186 2.49197 14.801C2.9004 15.454 3.45198 16.0055 4.10497 16.414C4.7896 16.7923 5.55781 16.9937 6.33997 17C7.30828 17.0081 8.25004 16.6837 9.00797 16.081C8.36753 15.5118 7.89804 14.7757 7.65197 13.955H8.05197C8.29538 14.6874 8.72471 15.3442 9.29797 15.861C9.87102 15.344 10.3003 14.6873 10.544 13.955H10.944C10.699 14.7748 10.2318 15.5107 9.59397 16.081C10.354 16.6844 11.2986 17.0079 12.269 16.997C13.0511 16.9907 13.8193 16.7893 14.504 16.411C15.1568 16.0024 15.7083 15.4508 16.117 14.798C16.5064 14.1179 16.7086 13.3467 16.703 12.563L16.704 12.565ZM3.83997 11.502H4.53997L4.17397 13.628H3.73397L3.98997 12.015L3.40397 13.628H3.07397V12.015L2.77797 13.628H2.33797L2.70397 11.502H3.36397V12.821L3.83997 11.502ZM5.89197 12.382C5.8902 12.4929 5.8778 12.6034 5.85497 12.712C5.83097 12.883 5.80597 13.042 5.78197 13.188C5.76525 13.2995 5.74086 13.4098 5.70897 13.518V13.628H5.34297V13.445C5.28945 13.5197 5.21746 13.5793 5.13402 13.6178C5.05058 13.6564 4.95856 13.6727 4.86697 13.665C4.81324 13.6673 4.75961 13.6587 4.70926 13.6398C4.65892 13.6209 4.6129 13.5921 4.57397 13.555C4.49792 13.4485 4.45924 13.3198 4.46397 13.189C4.45565 13.1009 4.46784 13.0121 4.49959 12.9295C4.53134 12.8469 4.58179 12.7728 4.64697 12.713C4.82987 12.5873 5.04812 12.5231 5.26997 12.53H5.45297V12.42C5.45297 12.32 5.35297 12.273 5.15997 12.273C4.99899 12.2786 4.83923 12.3031 4.68397 12.346C4.70797 12.246 4.73297 12.126 4.75697 11.98C4.92014 11.9133 5.09382 11.8761 5.26997 11.87C5.6853 11.87 5.89297 12.041 5.89297 12.383L5.89197 12.382ZM5.37897 12.858H5.26897C5.02497 12.858 4.90297 12.944 4.90297 13.114C4.90297 13.237 4.95197 13.297 5.04997 13.297C5.09304 13.2994 5.13598 13.2905 5.17457 13.2712C5.21315 13.2519 5.24603 13.2229 5.26997 13.187C5.3089 13.1421 5.3385 13.0898 5.35704 13.0333C5.37558 12.9769 5.3837 12.9172 5.37897 12.858ZM7.17897 11.905L7.10597 12.305C6.99839 12.2764 6.88719 12.264 6.77597 12.268C6.62897 12.268 6.55597 12.317 6.55597 12.415C6.55435 12.4349 6.55679 12.4549 6.56315 12.4738C6.56951 12.4927 6.57966 12.5101 6.59297 12.525L6.73997 12.598C6.83436 12.638 6.91547 12.704 6.97388 12.7882C7.03229 12.8725 7.06561 12.9716 7.06997 13.074C7.06997 13.4653 6.83663 13.6607 6.36997 13.66C6.21042 13.6652 6.05079 13.6528 5.89397 13.623C5.91797 13.523 5.94297 13.391 5.96697 13.223C6.09745 13.2609 6.23149 13.2854 6.36697 13.296C6.53697 13.296 6.62297 13.247 6.62297 13.149C6.62567 13.1089 6.61236 13.0693 6.58597 13.039C6.53426 12.9887 6.47163 12.9511 6.40297 12.929C6.30477 12.8946 6.21997 12.8301 6.1607 12.7446C6.10142 12.6591 6.07071 12.557 6.07297 12.453C6.07297 12.0623 6.29297 11.867 6.73297 11.867C6.88062 11.8602 7.02852 11.8727 7.17297 11.904L7.17897 11.905ZM7.87897 11.905H8.09897L8.06197 12.345H7.79797C7.79893 12.4561 7.78651 12.5669 7.76097 12.675C7.75815 12.7243 7.75213 12.7734 7.74297 12.822C7.73855 12.8751 7.71951 12.926 7.68797 12.969V13.116C7.68491 13.136 7.68661 13.1564 7.69291 13.1757C7.69922 13.1949 7.70996 13.2124 7.72427 13.2267C7.73858 13.241 7.75606 13.2517 7.77529 13.258C7.79452 13.2643 7.81496 13.266 7.83497 13.263C7.8862 13.2625 7.93658 13.2498 7.98197 13.226L7.90897 13.626C7.80144 13.6548 7.6902 13.6673 7.57897 13.663C7.52927 13.67 7.47863 13.6653 7.43103 13.6494C7.38344 13.6335 7.34019 13.6067 7.3047 13.5713C7.26921 13.5358 7.24246 13.4925 7.22654 13.4449C7.21062 13.3973 7.20597 13.3467 7.21297 13.297C7.21485 13.1357 7.23942 12.9754 7.28597 12.821L7.46897 11.648H7.90897L7.87297 11.905H7.87897ZM9.52797 12.491C9.5297 12.6385 9.51731 12.7858 9.49097 12.931H8.56797C8.55807 13.0226 8.58425 13.1144 8.64097 13.187C8.68586 13.2264 8.73818 13.2564 8.79486 13.2753C8.85153 13.2942 8.91141 13.3016 8.97097 13.297C9.13972 13.2902 9.30378 13.2395 9.44697 13.15L9.37397 13.59C9.22123 13.6438 9.0598 13.6685 8.89797 13.663C8.79335 13.6781 8.68666 13.6685 8.58636 13.6352C8.48606 13.6018 8.39493 13.5455 8.32019 13.4708C8.24545 13.396 8.18916 13.3049 8.15579 13.2046C8.12243 13.1043 8.1129 12.9976 8.12797 12.893C8.1112 12.6302 8.18926 12.3701 8.34797 12.16C8.40867 12.0699 8.49057 11.996 8.58646 11.945C8.68235 11.8939 8.78932 11.8671 8.89797 11.867C8.98557 11.8636 9.07296 11.8781 9.15479 11.9095C9.23662 11.941 9.3112 11.9888 9.37397 12.05C9.42645 12.1099 9.46647 12.1797 9.49171 12.2552C9.51695 12.3307 9.5269 12.4106 9.52097 12.49L9.52797 12.491ZM8.61197 12.564H9.12497V12.454L9.07797 12.381C9.07558 12.3528 9.06231 12.3266 9.04097 12.308C9.02688 12.3073 9.01309 12.3037 9.00051 12.2973C8.98793 12.2909 8.97684 12.282 8.96797 12.271H8.89797C8.7513 12.271 8.65363 12.3687 8.60497 12.564H8.61197ZM10.664 11.904C10.586 12.0685 10.5247 12.2403 10.481 12.417C10.381 12.393 10.298 12.454 10.225 12.6C10.1393 12.9371 10.0782 13.28 10.042 13.626H9.55797L9.59497 13.516C9.6923 12.8327 9.76563 12.295 9.81497 11.903H10.255L10.218 12.159C10.2641 12.0627 10.3417 11.9851 10.438 11.939C10.4626 11.9054 10.4994 11.8827 10.5405 11.8758C10.5815 11.8689 10.6237 11.8783 10.658 11.902L10.664 11.904ZM12.203 11.574L12.13 12.014C12.0068 11.9471 11.87 11.9095 11.73 11.904C11.6438 11.8988 11.5577 11.9164 11.4805 11.955C11.4033 11.9937 11.3376 12.0519 11.29 12.124C11.1778 12.2978 11.1261 12.5038 11.143 12.71C11.1303 12.8417 11.1698 12.9731 11.253 13.076C11.2859 13.1227 11.3299 13.1606 11.381 13.1863C11.4321 13.2119 11.4888 13.2245 11.546 13.223C11.686 13.2175 11.8228 13.1798 11.946 13.113L11.873 13.589C11.7468 13.6432 11.6101 13.6681 11.473 13.662C11.3623 13.6664 11.2521 13.6456 11.1506 13.6013C11.0491 13.5569 10.959 13.4902 10.887 13.406C10.8083 13.3161 10.7484 13.2114 10.7106 13.0981C10.6728 12.9848 10.658 12.8651 10.667 12.746C10.6549 12.4158 10.7585 12.0918 10.96 11.83C11.0408 11.7115 11.1506 11.6157 11.2789 11.5517C11.4072 11.4876 11.5497 11.4574 11.693 11.464C11.8685 11.4749 12.0414 11.512 12.206 11.574H12.203ZM13.522 12.38C13.5191 12.4293 13.5131 12.4784 13.504 12.527C13.4928 12.5874 13.4868 12.6486 13.486 12.71C13.462 12.833 13.437 12.998 13.413 13.205C13.4003 13.3471 13.3759 13.4879 13.34 13.626H12.974V13.443C12.9205 13.5177 12.8485 13.5773 12.765 13.6158C12.6816 13.6544 12.5896 13.6707 12.498 13.663C12.4442 13.6653 12.3906 13.6567 12.3403 13.6378C12.2899 13.6189 12.2439 13.5901 12.205 13.553C12.1289 13.4465 12.0902 13.3178 12.095 13.187C12.0867 13.0989 12.0988 13.0101 12.1306 12.9275C12.1623 12.8449 12.2128 12.7708 12.278 12.711C12.4488 12.589 12.6541 12.5249 12.864 12.528H13.047C13.0601 12.513 13.0701 12.4956 13.0765 12.4767C13.0828 12.4578 13.0854 12.4379 13.084 12.418C13.084 12.318 12.984 12.271 12.791 12.271C12.63 12.2766 12.4702 12.3011 12.315 12.344C12.317 12.2204 12.3382 12.098 12.378 11.981C12.5411 11.9143 12.7148 11.8771 12.891 11.871C13.3063 11.871 13.514 12.042 13.514 12.384L13.522 12.38ZM13.009 12.856H12.899C12.655 12.856 12.533 12.942 12.533 13.112C12.533 13.235 12.582 13.295 12.68 13.295C12.723 13.2974 12.766 13.2885 12.8046 13.2692C12.8431 13.2499 12.876 13.2209 12.9 13.185C12.9759 13.0938 13.0126 12.9762 13.002 12.858L13.009 12.856ZM14.658 11.903C14.5495 12.0532 14.4861 12.2311 14.475 12.416C14.375 12.392 14.292 12.453 14.219 12.599C14.1339 12.9363 14.0727 13.2791 14.036 13.625H13.56L13.597 13.515C13.6936 12.9817 13.767 12.444 13.817 11.902H14.257C14.2582 11.9887 14.2457 12.0751 14.22 12.158C14.2661 12.0617 14.3437 11.9841 14.44 11.938C14.4717 11.916 14.5078 11.9013 14.5458 11.8949C14.5839 11.8885 14.6228 11.8906 14.66 11.901L14.658 11.903ZM15.794 11.503H16.27L15.904 13.629H15.464L15.501 13.482C15.4533 13.5417 15.3922 13.5893 15.3228 13.6211C15.2533 13.6529 15.1773 13.6679 15.101 13.665C15.024 13.6734 14.9462 13.6609 14.8757 13.6287C14.8053 13.5964 14.7449 13.5458 14.701 13.482C14.5869 13.3348 14.5228 13.1551 14.518 12.969C14.5047 12.6894 14.596 12.415 14.774 12.199C14.825 12.1083 14.8996 12.0332 14.99 11.9816C15.0803 11.93 15.183 11.9038 15.287 11.906C15.3713 11.9114 15.4536 11.9337 15.5292 11.9715C15.6048 12.0093 15.672 12.0618 15.727 12.126L15.8 11.503H15.794ZM15.611 12.639C15.611 12.419 15.525 12.309 15.355 12.309C15.2998 12.3138 15.247 12.3333 15.2019 12.3655C15.1569 12.3976 15.1213 12.4413 15.099 12.492C15.0395 12.6164 15.0143 12.7545 15.026 12.892C15.026 13.112 15.0993 13.222 15.246 13.222C15.2974 13.2201 15.3475 13.2057 15.3921 13.1801C15.4367 13.1545 15.4744 13.1184 15.502 13.075C15.5846 12.9438 15.6231 12.7896 15.612 12.635L15.611 12.639Z" fill="#4754A0"/>
</svg>
