<svg width="33" height="33" viewBox="0 0 33 33" fill="none" xmlns="http://www.w3.org/2000/svg">
<circle cx="16.5" cy="16.5" r="16.5" fill="white"/>
<path d="M9.60351 10.4687H23.3535C23.5141 10.4686 23.6746 10.4788 23.8339 10.4992C23.7799 10.1201 23.6497 9.7559 23.4511 9.4285C23.2526 9.10111 22.9897 8.81731 22.6785 8.59423C22.3673 8.37115 22.0141 8.2134 21.6403 8.1305C21.2665 8.0476 20.8797 8.04126 20.5034 8.11186L9.19531 10.0424H9.18242C8.47261 10.1782 7.84139 10.5798 7.41769 11.1652C8.05604 10.7112 8.82017 10.4677 9.60351 10.4687Z" fill="#A25DB6"/>
<path d="M23.3535 11.5H9.60352C8.87441 11.5008 8.1754 11.7908 7.65985 12.3063C7.1443 12.8219 6.85431 13.5209 6.85352 14.25V22.5C6.85431 23.2291 7.1443 23.9281 7.65985 24.4437C8.1754 24.9592 8.87441 25.2492 9.60352 25.25H23.3535C24.0826 25.2492 24.7816 24.9592 25.2972 24.4437C25.8127 23.9281 26.1027 23.2291 26.1035 22.5V14.25C26.1027 13.5209 25.8127 12.8219 25.2972 12.3063C24.7816 11.7908 24.0826 11.5008 23.3535 11.5ZM21.3125 19.75C21.0406 19.75 20.7747 19.6694 20.5486 19.5183C20.3225 19.3672 20.1462 19.1524 20.0422 18.9012C19.9381 18.6499 19.9109 18.3735 19.9639 18.1068C20.017 17.84 20.1479 17.595 20.3402 17.4027C20.5325 17.2104 20.7775 17.0795 21.0443 17.0264C21.311 16.9734 21.5874 17.0006 21.8387 17.1047C22.0899 17.2087 22.3047 17.385 22.4558 17.6111C22.6069 17.8372 22.6875 18.1031 22.6875 18.375C22.6875 18.7397 22.5426 19.0894 22.2848 19.3473C22.0269 19.6051 21.6772 19.75 21.3125 19.75Z" fill="#A25DB6"/>
<path d="M6.875 17.1504V12.875C6.875 11.9439 7.39062 10.3828 9.18027 10.0446C10.6992 9.75977 12.2031 9.75977 12.2031 9.75977C12.2031 9.75977 13.1914 10.4473 12.375 10.4473C11.5586 10.4473 11.5801 11.5 12.375 11.5C13.1699 11.5 12.375 12.5098 12.375 12.5098L9.17383 16.1406L6.875 17.1504Z" fill="#A25DB6"/>
</svg>
